<mxfile host="app.diagrams.net" modified="2024-01-03T10:06:39.562Z" agent="Mozilla/5.0 (Windows NT 10.0; Win64; x64) AppleWebKit/537.36 (KHTML, like Gecko) Chrome/120.0.0.0 Safari/537.36" etag="8yJ1ItOEcU03ZhQN7zRi" version="22.1.16" type="github">
  <diagram name="Page-1" id="03018318-947c-dd8e-b7a3-06fadd420f32">
    <mxGraphModel dx="1208" dy="614" grid="1" gridSize="10" guides="1" tooltips="1" connect="1" arrows="1" fold="1" page="1" pageScale="1" pageWidth="1100" pageHeight="850" background="#ffffff" math="0" shadow="0">
      <root>
        <mxCell id="0" />
        <mxCell id="1" parent="0" />
        <mxCell id="677b7b8949515195-1" value="" style="whiteSpace=wrap;html=1;rounded=0;shadow=0;labelBackgroundColor=none;strokeColor=#000000;strokeWidth=1;fillColor=#522398;fontFamily=Verdana;fontSize=12;fontColor=#000000;align=center;comic=1;" parent="1" vertex="1">
          <mxGeometry x="20" y="20" width="1060" height="570" as="geometry" />
        </mxCell>
        <mxCell id="677b7b8949515195-9" value="" style="line;strokeWidth=1;html=1;rounded=0;shadow=0;labelBackgroundColor=none;fillColor=none;fontFamily=Verdana;fontSize=14;fontColor=#000000;align=center;comic=1;" parent="1" vertex="1">
          <mxGeometry x="20" y="140" width="1060" height="10" as="geometry" />
        </mxCell>
        <mxCell id="677b7b8949515195-16" value="" style="verticalLabelPosition=bottom;shadow=0;dashed=0;align=center;html=1;verticalAlign=top;strokeWidth=1;shape=mxgraph.mockup.graphics.simpleIcon;strokeColor=#999999;rounded=0;labelBackgroundColor=none;fontFamily=Verdana;fontSize=14;fontColor=#000000;comic=1;" parent="1" vertex="1">
          <mxGeometry x="250" y="230" width="580" height="350" as="geometry" />
        </mxCell>
        <mxCell id="677b7b8949515195-25" value="" style="whiteSpace=wrap;html=1;rounded=0;shadow=0;labelBackgroundColor=none;strokeWidth=1;fillColor=default;fontFamily=Verdana;fontSize=12;align=center;comic=1;" parent="1" vertex="1">
          <mxGeometry x="840" y="230" width="230" height="350" as="geometry" />
        </mxCell>
        <mxCell id="677b7b8949515195-26" value="&lt;b&gt;&lt;font face=&quot;Arial&quot;&gt;Share&lt;/font&gt;&lt;/b&gt;" style="whiteSpace=wrap;html=1;rounded=0;shadow=0;labelBackgroundColor=none;strokeWidth=1;fillColor=#F9E300;fontFamily=Verdana;fontSize=12;align=center;comic=1;" parent="1" vertex="1">
          <mxGeometry x="820" y="43" width="240" height="30" as="geometry" />
        </mxCell>
        <mxCell id="677b7b8949515195-29" value="Palkintoni" style="text;html=1;points=[];align=left;verticalAlign=top;spacingTop=-4;fontSize=14;fontFamily=Arial;fontStyle=1" parent="1" vertex="1">
          <mxGeometry x="860" y="246" width="170" height="20" as="geometry" />
        </mxCell>
        <mxCell id="677b7b8949515195-45" value="Taso 1" style="text;html=1;points=[];align=left;verticalAlign=top;spacingTop=-4;fontSize=14;fontFamily=Arial;fontStyle=0" parent="1" vertex="1">
          <mxGeometry x="862" y="293" width="170" height="20" as="geometry" />
        </mxCell>
        <mxCell id="677b7b8949515195-46" value="Taso 2" style="text;html=1;points=[];align=left;verticalAlign=top;spacingTop=-4;fontSize=14;fontFamily=Arial;fontStyle=0" parent="1" vertex="1">
          <mxGeometry x="862" y="328" width="170" height="20" as="geometry" />
        </mxCell>
        <mxCell id="677b7b8949515195-47" value="Taso 3" style="text;html=1;points=[];align=left;verticalAlign=top;spacingTop=-4;fontSize=14;fontFamily=Arial;fontStyle=0" parent="1" vertex="1">
          <mxGeometry x="862" y="363" width="170" height="20" as="geometry" />
        </mxCell>
        <mxCell id="677b7b8949515195-48" value="Taso 4" style="text;html=1;points=[];align=left;verticalAlign=top;spacingTop=-4;fontSize=14;fontFamily=Arial;fontStyle=0" parent="1" vertex="1">
          <mxGeometry x="862" y="398" width="170" height="20" as="geometry" />
        </mxCell>
        <mxCell id="677b7b8949515195-49" value="Supersankari" style="text;html=1;points=[];align=left;verticalAlign=top;spacingTop=-4;fontSize=14;fontFamily=Arial;fontStyle=1" parent="1" vertex="1">
          <mxGeometry x="860" y="540" width="170" height="20" as="geometry" />
        </mxCell>
        <mxCell id="PZfe659eeORPcTWbyocC-10" value="" style="shape=actor;whiteSpace=wrap;html=1;" vertex="1" parent="1">
          <mxGeometry x="143" y="176" width="10" height="15" as="geometry" />
        </mxCell>
        <mxCell id="PZfe659eeORPcTWbyocC-16" value="&lt;font face=&quot;Arial&quot;&gt;Taito&lt;br&gt;tarkastus&lt;/font&gt;" style="whiteSpace=wrap;html=1;rounded=0;shadow=0;labelBackgroundColor=none;strokeWidth=1;fontFamily=Verdana;fontSize=28;align=center;comic=1;" vertex="1" parent="1">
          <mxGeometry x="170" y="50" width="153" height="70" as="geometry" />
        </mxCell>
        <mxCell id="PZfe659eeORPcTWbyocC-20" value="&lt;font color=&quot;#ffffff&quot; face=&quot;Arial&quot;&gt;&lt;b&gt;Chat&lt;/b&gt;&lt;/font&gt;" style="whiteSpace=wrap;html=1;rounded=0;shadow=0;labelBackgroundColor=none;strokeWidth=1;fillColor=#00B0CA;fontFamily=Verdana;fontSize=12;align=center;comic=1;" vertex="1" parent="1">
          <mxGeometry x="820" y="93" width="120" height="30" as="geometry" />
        </mxCell>
        <mxCell id="PZfe659eeORPcTWbyocC-21" value="Taso 5" style="text;html=1;points=[];align=left;verticalAlign=top;spacingTop=-4;fontSize=14;fontFamily=Arial;fontStyle=0" vertex="1" parent="1">
          <mxGeometry x="862" y="433" width="170" height="20" as="geometry" />
        </mxCell>
        <mxCell id="PZfe659eeORPcTWbyocC-22" value="Taso 6" style="text;html=1;points=[];align=left;verticalAlign=top;spacingTop=-4;fontSize=14;fontFamily=Arial;fontStyle=0" vertex="1" parent="1">
          <mxGeometry x="862" y="468" width="170" height="20" as="geometry" />
        </mxCell>
        <mxCell id="PZfe659eeORPcTWbyocC-23" value="Taso 7" style="text;html=1;points=[];align=left;verticalAlign=top;spacingTop=-4;fontSize=14;fontFamily=Arial;fontStyle=0" vertex="1" parent="1">
          <mxGeometry x="862" y="503" width="170" height="20" as="geometry" />
        </mxCell>
        <mxCell id="PZfe659eeORPcTWbyocC-26" value="&amp;nbsp; Etsin..." style="rounded=0;whiteSpace=wrap;html=1;align=left;fontFamily=Arial;fontStyle=0" vertex="1" parent="1">
          <mxGeometry x="960" y="93" width="100" height="30" as="geometry" />
        </mxCell>
        <mxCell id="PZfe659eeORPcTWbyocC-28" value="&lt;div style=&quot;font-size: 21px; line-height: 130%;&quot;&gt;&lt;span style=&quot;background-color: initial;&quot;&gt;Pelin tavoitteena on lisätä&amp;nbsp;&lt;/span&gt;&lt;br&gt;&lt;/div&gt;&lt;div style=&quot;font-size: 21px; line-height: 130%;&quot;&gt;&lt;font style=&quot;font-size: 21px;&quot;&gt;itsetuntoa ja itseluottamusta&lt;/font&gt;&lt;/div&gt;" style="text;html=1;points=[];align=left;verticalAlign=top;spacingTop=-4;fontSize=14;fontFamily=Arial;fillColor=none;fontColor=#FFFFFF;fontStyle=1;whiteSpace=wrap;" vertex="1" parent="1">
          <mxGeometry x="350" y="56.25" width="380" height="57.5" as="geometry" />
        </mxCell>
        <mxCell id="PZfe659eeORPcTWbyocC-29" value="" style="shape=image;imageAspect=0;aspect=fixed;verticalLabelPosition=bottom;verticalAlign=top;image=https://www.taitotalo.fi/sites/default/files/styles/landing_page_main_image/public/2021-04/strategia2021-22_0.jpg?h=07219b85&amp;itok=gno600ko;opacity=10;clipPath=inset(18.1% 0% 0.48% 0%);" vertex="1" parent="1">
          <mxGeometry x="225.95" y="230" width="614.05" height="350" as="geometry" />
        </mxCell>
        <mxCell id="PZfe659eeORPcTWbyocC-1" value="&lt;font style=&quot;&quot; face=&quot;Arial&quot;&gt;&lt;b&gt;Aloita nyt&lt;/b&gt;&lt;/font&gt;" style="rounded=0;whiteSpace=wrap;html=1;fillColor=#F9E300;" vertex="1" parent="1">
          <mxGeometry x="480" y="373" width="120" height="60" as="geometry" />
        </mxCell>
        <mxCell id="677b7b8949515195-10" value="" style="whiteSpace=wrap;html=1;rounded=0;shadow=0;labelBackgroundColor=none;strokeWidth=1;fillColor=default;fontFamily=Verdana;fontSize=12;align=center;comic=1;fontColor=none;noLabel=1;" parent="1" vertex="1">
          <mxGeometry x="30" y="160" width="1040" height="50" as="geometry" />
        </mxCell>
        <mxCell id="677b7b8949515195-11" value="Peli" style="text;html=1;points=[];align=left;verticalAlign=top;spacingTop=-4;fontSize=14;fontFamily=Arial;fillColor=none;fontColor=#000000;fontStyle=1" parent="1" vertex="1">
          <mxGeometry x="330" y="175" width="33" height="20" as="geometry" />
        </mxCell>
        <mxCell id="677b7b8949515195-12" value="Kurssit" style="text;html=1;points=[];align=left;verticalAlign=top;spacingTop=-4;fontSize=14;fontFamily=Arial;fillColor=none;fontColor=#000000;fontStyle=1" parent="1" vertex="1">
          <mxGeometry x="407" y="175" width="60" height="20" as="geometry" />
        </mxCell>
        <mxCell id="677b7b8949515195-13" value="&lt;font&gt;Tapahtumat&lt;/font&gt;" style="text;html=1;points=[];align=left;verticalAlign=top;spacingTop=-4;fontSize=14;fontFamily=Arial;fillColor=none;fontColor=#000000;fontStyle=1" parent="1" vertex="1">
          <mxGeometry x="713" y="173.5" width="87" height="20" as="geometry" />
        </mxCell>
        <mxCell id="677b7b8949515195-14" value="Asiantuntevat ratkaisut" style="text;html=1;points=[];align=left;verticalAlign=top;spacingTop=-4;fontSize=14;fontFamily=Arial;fillColor=none;fontColor=#000000;fontStyle=1" parent="1" vertex="1">
          <mxGeometry x="500" y="175" width="170" height="20" as="geometry" />
        </mxCell>
        <mxCell id="677b7b8949515195-27" value="Oma profiili" style="text;html=1;points=[];align=left;verticalAlign=top;spacingTop=-4;fontSize=14;fontFamily=Arial;fontStyle=1" parent="1" vertex="1">
          <mxGeometry x="40" y="175" width="170" height="20" as="geometry" />
        </mxCell>
        <mxCell id="677b7b8949515195-8" value="" style="whiteSpace=wrap;html=1;rounded=0;shadow=0;labelBackgroundColor=none;strokeWidth=1;fillColor=default;fontFamily=Verdana;fontSize=12;align=center;comic=1;fontColor=#B2B4B3;" parent="1" vertex="1">
          <mxGeometry x="30" y="230" width="200" height="350" as="geometry" />
        </mxCell>
        <mxCell id="677b7b8949515195-28" value="Progressini" style="text;html=1;points=[];align=left;verticalAlign=top;spacingTop=-4;fontSize=14;fontFamily=Arial;fontStyle=1;fontColor=#B2B4B3;" parent="1" vertex="1">
          <mxGeometry x="40" y="244" width="170" height="20" as="geometry" />
        </mxCell>
        <mxCell id="677b7b8949515195-30" value="Kurssit" style="text;html=1;points=[];align=left;verticalAlign=top;spacingTop=-4;fontSize=14;fontFamily=Arial;fontStyle=1;fontColor=#B2B4B3;" parent="1" vertex="1">
          <mxGeometry x="40" y="281" width="170" height="20" as="geometry" />
        </mxCell>
        <mxCell id="677b7b8949515195-32" value="Kirjautua ulos" style="text;html=1;points=[];align=left;verticalAlign=top;spacingTop=-4;fontSize=14;fontFamily=Arial;fontStyle=1;fontColor=#B2B4B3;" parent="1" vertex="1">
          <mxGeometry x="40" y="425" width="170" height="20" as="geometry" />
        </mxCell>
        <mxCell id="677b7b8949515195-39" value="Äskettäin" style="text;html=1;points=[];align=left;verticalAlign=top;spacingTop=-4;fontSize=14;fontFamily=Arial;fontStyle=1;fontColor=#B2B4B3;" parent="1" vertex="1">
          <mxGeometry x="40" y="317" width="170" height="20" as="geometry" />
        </mxCell>
        <mxCell id="677b7b8949515195-40" value="Asetukset" style="text;html=1;points=[];align=left;verticalAlign=top;spacingTop=-4;fontSize=14;fontFamily=Arial;fontStyle=1;fontColor=#B2B4B3;" parent="1" vertex="1">
          <mxGeometry x="40" y="353" width="170" height="20" as="geometry" />
        </mxCell>
        <mxCell id="PZfe659eeORPcTWbyocC-2" value="Tietosuojakäytäntö" style="text;html=1;points=[];align=left;verticalAlign=top;spacingTop=-4;fontSize=14;fontFamily=Arial;fontColor=#B2B4B3;" vertex="1" parent="1">
          <mxGeometry x="40" y="480" width="170" height="20" as="geometry" />
        </mxCell>
        <mxCell id="PZfe659eeORPcTWbyocC-3" value="Apua ja palautetta" style="text;html=1;points=[];align=left;verticalAlign=top;spacingTop=-4;fontSize=14;fontFamily=Arial;fontColor=#B2B4B3;" vertex="1" parent="1">
          <mxGeometry x="40" y="510" width="170" height="20" as="geometry" />
        </mxCell>
        <mxCell id="PZfe659eeORPcTWbyocC-4" value="Päivitys" style="text;html=1;points=[];align=left;verticalAlign=top;spacingTop=-4;fontSize=14;fontFamily=Arial;fontColor=#B2B4B3;" vertex="1" parent="1">
          <mxGeometry x="40" y="540" width="170" height="20" as="geometry" />
        </mxCell>
        <mxCell id="PZfe659eeORPcTWbyocC-6" value="" style="endArrow=none;html=1;rounded=0;fontColor=#B2B4B3;textOpacity=10;opacity=40;" edge="1" parent="1">
          <mxGeometry width="50" height="50" relative="1" as="geometry">
            <mxPoint x="42" y="455" as="sourcePoint" />
            <mxPoint x="96" y="455" as="targetPoint" />
          </mxGeometry>
        </mxCell>
        <mxCell id="PZfe659eeORPcTWbyocC-7" value="" style="endArrow=none;html=1;rounded=0;fontColor=#B2B4B3;textOpacity=10;opacity=40;" edge="1" parent="1">
          <mxGeometry width="50" height="50" relative="1" as="geometry">
            <mxPoint x="96" y="455" as="sourcePoint" />
            <mxPoint x="150" y="455" as="targetPoint" />
          </mxGeometry>
        </mxCell>
        <mxCell id="PZfe659eeORPcTWbyocC-8" value="" style="endArrow=none;html=1;rounded=0;fontColor=#B2B4B3;textOpacity=10;opacity=40;" edge="1" parent="1">
          <mxGeometry width="50" height="50" relative="1" as="geometry">
            <mxPoint x="41" y="415" as="sourcePoint" />
            <mxPoint x="95" y="415" as="targetPoint" />
          </mxGeometry>
        </mxCell>
        <mxCell id="PZfe659eeORPcTWbyocC-9" value="" style="endArrow=none;html=1;rounded=0;fontColor=#B2B4B3;textOpacity=10;opacity=40;" edge="1" parent="1">
          <mxGeometry width="50" height="50" relative="1" as="geometry">
            <mxPoint x="94" y="415" as="sourcePoint" />
            <mxPoint x="148" y="415" as="targetPoint" />
          </mxGeometry>
        </mxCell>
        <mxCell id="PZfe659eeORPcTWbyocC-12" value="" style="verticalLabelPosition=bottom;verticalAlign=top;html=1;shape=mxgraph.basic.8_point_star;textOpacity=10;opacity=40;" vertex="1" parent="1">
          <mxGeometry x="139" y="351" width="19" height="19" as="geometry" />
        </mxCell>
        <mxCell id="PZfe659eeORPcTWbyocC-13" value="" style="shape=datastore;whiteSpace=wrap;html=1;textOpacity=10;opacity=40;" vertex="1" parent="1">
          <mxGeometry x="141.17" y="283" width="15" height="15" as="geometry" />
        </mxCell>
        <mxCell id="PZfe659eeORPcTWbyocC-14" value="" style="shape=singleArrow;direction=west;whiteSpace=wrap;html=1;arrowWidth=1;arrowSize=1;textOpacity=10;opacity=40;" vertex="1" parent="1">
          <mxGeometry x="138.34" y="323" width="16.67" height="10" as="geometry" />
        </mxCell>
        <mxCell id="PZfe659eeORPcTWbyocC-19" value="" style="shape=singleArrow;direction=north;whiteSpace=wrap;html=1;textOpacity=10;opacity=40;" vertex="1" parent="1">
          <mxGeometry x="143" y="246" width="12" height="20" as="geometry" />
        </mxCell>
        <mxCell id="PZfe659eeORPcTWbyocC-30" value="" style="shape=image;imageAspect=0;aspect=fixed;verticalLabelPosition=bottom;verticalAlign=top;image=https://www.taitotalo.fi/sites/default/files/styles/main_image/public/2023-04/uutinen%20.png.jpeg?itok=w4EovjbV;clipPath=inset(0% 33.33% 0% 33.33%);" vertex="1" parent="1">
          <mxGeometry x="34.96" y="30.7" width="118.04" height="108.6" as="geometry" />
        </mxCell>
        <mxCell id="PZfe659eeORPcTWbyocC-31" value="" style="shape=actor;whiteSpace=wrap;html=1;" vertex="1" parent="1">
          <mxGeometry x="144.34" y="173.5" width="13.33" height="20" as="geometry" />
        </mxCell>
      </root>
    </mxGraphModel>
  </diagram>
</mxfile>
